# xmcd
#
# Track frame offsets:
#	150
#	32789
#	55372
#	77962
#	98362
#	126667
#	148831
#	174692
#	205413
#	223448
#	245126
#	271699
#	296241
#	317961
#
# Disc length: 4436
#
# Revision: 1
# Processed by: cddbd v1.5.1PL0 Copyright (c) Steve Scherf et al.
# Submitted via: audiograbber 1.82.02
# Normalized: r0:TRMNUM
#
DISCID=ec11520e
DTITLE=Gray Records - Live Mix By Dee Jay Gray
DYEAR=1900
DGENRE=
TTITLE0=Moby - Sunday (T&F vs. Moltosugo Club Mix)
TTITLE1=Gabrielle - Looking My Love (Artful Dodger Rmx)
TTITLE2=DJ Vou - High Steppin
TTITLE3=DJ Tonka - Keep Klimbing (Original Funk Mix)
TTITLE4=Robin - Keep This Fire Burning (Twin Club Mix)
TTITLE5=De Nut - All That Mattered (Junior Jack Rmx)
TTITLE6=Gabrielle D`Andrea - Blow
TTITLE7=Knee Deep vs. Shakatak - Nightbirds
TTITLE8=Banda Sonora - Guitara G
TTITLE9=Cos Caribeans - Pinocolada
TTITLE10=Double M Mr. Mike - Start This Party (Sax Sells Mix)
TTITLE11=Borigua Bandits - Mindnite Expresso (Jack`s Latin Cafe Mix)
TTITLE12=Audio Soul Project - Memory
TTITLE13=Lazy Dog feat. Ben Watt - Lone Cat
EXTD=
EXTT0=
EXTT1=
EXTT2=
EXTT3=
EXTT4=
EXTT5=
EXTT6=
EXTT7=
EXTT8=
EXTT9=
EXTT10=
EXTT11=
EXTT12=
EXTT13=
PLAYORDER=
